# xmcd
#
# Track frame offsets:
#	150
#	19297
#	38865
#	65975
#	82842
#	101062
#	122762
#	142707
#	165132
#	184107
#	202327
#
# Disc length: 2912 seconds
# Revision: 3
# Processed by: cddbd v1.5.2PL0 Copyright (c) Steve Scherf et al.
# Submitted via: dBpowerAMP V12.0
#
DISCID=930b5e0b
DTITLE=Michael Hill's Blues Mob - New York State of Blues
DYEAR=1998
DGENRE=Blues
TTITLE0=Long Hot Night
TTITLE1=A Case of The Blues
TTITLE2=Soul Doin' Time
TTITLE3=Young Folks' Blues
TTITLE4=Papa Was a Rollin' Stone - Mama Sang The Blues
TTITLE5=Anytime, Anywhere
TTITLE6=New York State of Blues
TTITLE7=Living For The City
TTITLE8=This is my Job
TTITLE9=Up And Down The Stairs
TTITLE10=Never Give up on You
EXTD=
EXTT0=
EXTT1=
EXTT2=
EXTT3=
EXTT4=
EXTT5=
EXTT6=
EXTT7=
EXTT8=
EXTT9=
EXTT10=
PLAYORDER=
